<svg width="23" height="23" viewBox="0 0 23 23" fill="none" xmlns="http://www.w3.org/2000/svg">
<rect x="0.5" y="3.5" width="19" height="19" rx="5.5" stroke="white"/>
<rect x="3" width="20" height="20" rx="6" fill="white"/>
<path d="M15.1428 12.936C15.1428 12.688 15.0428 12.456 14.8428 12.24C14.6508 12.024 14.4108 11.828 14.1228 11.652C13.8348 11.468 13.4348 11.24 12.9228 10.968C12.3228 10.648 11.8388 10.372 11.4708 10.14C11.1028 9.9 10.7868 9.624 10.5228 9.312C10.2668 8.992 10.1388 8.64 10.1388 8.256C10.1388 7.856 10.3108 7.428 10.6548 6.972C11.0068 6.508 11.4348 6.12 11.9388 5.808C12.4428 5.488 12.9068 5.328 13.3308 5.328C13.8428 5.328 14.4388 5.388 15.1188 5.508C15.8068 5.628 16.3068 5.756 16.6188 5.892V8.34H15.8988C15.5308 7.692 15.1228 7.188 14.6748 6.828C14.2348 6.468 13.7708 6.288 13.2828 6.288C12.8748 6.288 12.5548 6.416 12.3228 6.672C12.0908 6.92 11.9748 7.244 11.9748 7.644C11.9748 7.908 12.0748 8.156 12.2748 8.388C12.4748 8.612 12.7228 8.816 13.0188 9C13.3228 9.184 13.7308 9.408 14.2428 9.672C14.8268 9.976 15.3028 10.244 15.6708 10.476C16.0388 10.708 16.3468 10.98 16.5948 11.292C16.8508 11.604 16.9788 11.948 16.9788 12.324C16.9788 12.724 16.7908 13.156 16.4148 13.62C16.0468 14.076 15.5948 14.464 15.0588 14.784C14.5228 15.096 14.0348 15.252 13.5948 15.252C13.0588 15.252 12.4188 15.192 11.6748 15.072C10.9388 14.952 10.4068 14.824 10.0788 14.688V12.24H10.8108C11.1948 12.888 11.6348 13.392 12.1308 13.752C12.6268 14.112 13.1348 14.292 13.6548 14.292C14.1028 14.292 14.4628 14.16 14.7348 13.896C15.0068 13.624 15.1428 13.304 15.1428 12.936Z" fill="black"/>
</svg>
